<svg width="114" height="20" viewBox="0 0 114 20" fill="none" xmlns="http://www.w3.org/2000/svg">
<path d="M109.531 3.32115H108.723V2.98666H110.743V3.32115H109.89V5.90153H109.531V3.32115Z" fill="#FAF8F4"/>
<path d="M113.302 4.61095C113.302 4.22867 113.258 3.70304 113.258 3.36854C113.168 3.70304 113.033 4.08531 112.898 4.46759L112.405 5.85336H112.135L111.686 4.46759C111.552 4.03753 111.462 3.70303 111.372 3.32076C111.372 3.70303 111.327 4.18088 111.327 4.61095L111.237 5.85336H110.923L111.103 2.93848H111.552L112 4.32424C112.135 4.65873 112.225 4.99323 112.27 5.27994C112.36 4.99323 112.449 4.65873 112.539 4.32424L113.033 2.93848H113.482L113.662 5.85336H113.302V4.61095Z" fill="#FAF8F4"/>
<path d="M27.2385 14.5246C26.7442 14.5246 26.3604 14.4877 26.0869 14.4138V13.227C26.3393 13.2692 26.5812 13.2903 26.8126 13.2903C27.1912 13.2903 27.4647 13.2217 27.6329 13.0845C27.8117 12.9368 27.9222 12.768 27.9642 12.5781C28.0063 12.3777 28.0273 12.1245 28.0273 11.8185V3.39965H29.6522V12.2458C29.6522 12.8472 29.4945 13.3799 29.179 13.8441C28.874 14.2978 28.2272 14.5246 27.2385 14.5246Z" fill="#FAF8F4"/>
<path d="M39.347 14.4771H37.7063V12.9738H37.5959C37.3856 13.438 37.0595 13.8283 36.6178 14.1448C36.1761 14.4613 35.6397 14.6196 35.0087 14.6196C34.2935 14.6196 33.7098 14.4508 33.2576 14.1132C32.8159 13.765 32.4951 13.3272 32.2953 12.7997C32.0954 12.2616 31.9955 11.6972 31.9955 11.1064V6.13737H33.6204V10.869C33.6204 11.6075 33.8045 12.1825 34.1726 12.594C34.5407 13.0054 35.0297 13.2111 35.6397 13.2111C36.2813 13.2111 36.7861 12.9949 37.1542 12.5623C37.5223 12.1192 37.7063 11.5548 37.7063 10.869V6.13737H39.347V14.4771Z" fill="#FAF8F4"/>
<path d="M41.4082 6.13737H43.0331V7.46667H43.1278C43.2645 7.09742 43.5064 6.78619 43.8534 6.53299C44.211 6.26924 44.6685 6.13737 45.2259 6.13737C45.3732 6.13737 45.4994 6.14264 45.6046 6.15319C45.7097 6.16374 45.8149 6.19012 45.9201 6.23232L45.857 7.78317C45.573 7.69877 45.2785 7.65657 44.9735 7.65657C44.353 7.65657 43.8745 7.83592 43.5379 8.19462C43.2014 8.54277 43.0331 9.12302 43.0331 9.93536V14.4771H41.4082V6.13737Z" fill="#FAF8F4"/>
<path d="M47.5747 6.13737H49.1996V14.4771H47.5747V6.13737ZM48.3792 4.61817C48.0953 4.61817 47.8586 4.52322 47.6693 4.33332C47.48 4.14342 47.3854 3.90605 47.3854 3.6212C47.3854 3.33635 47.48 3.09897 47.6693 2.90907C47.8586 2.71917 48.0953 2.62422 48.3792 2.62422C48.6632 2.62422 48.8998 2.72445 49.0891 2.9249C49.2784 3.1148 49.3731 3.3469 49.3731 3.6212C49.3731 3.8955 49.2784 4.13287 49.0891 4.33332C48.8998 4.52322 48.6632 4.61817 48.3792 4.61817Z" fill="#FAF8F4"/>
<path d="M54.4488 14.5879C53.7652 14.5879 53.1762 14.456 52.6819 14.1923C52.1876 13.9285 51.809 13.5857 51.5461 13.1637C51.2832 12.7311 51.1517 12.2827 51.1517 11.8185V11.7394H52.7608V11.8027C52.7608 12.1825 52.9133 12.5254 53.2183 12.8313C53.5233 13.1267 53.9493 13.2744 54.4961 13.2744C54.9484 13.2744 55.3217 13.1637 55.6162 12.9421C55.9107 12.7206 56.0579 12.4199 56.0579 12.0401C56.0579 11.713 55.9422 11.4598 55.7109 11.2805C55.4795 11.0906 55.185 10.964 54.8274 10.9007L53.7862 10.7424C53.1131 10.6369 52.54 10.3996 52.0667 10.0303C51.5934 9.65051 51.3568 9.10191 51.3568 8.38452C51.3568 7.60382 51.6355 6.99719 52.1929 6.56464C52.7503 6.13209 53.4707 5.91582 54.3542 5.91582C54.9957 5.91582 55.5531 6.03714 56.0264 6.27979C56.4997 6.51189 56.8572 6.82312 57.0991 7.21347C57.341 7.60382 57.462 8.02582 57.462 8.47947V8.54277H55.8528V8.51112C55.8528 8.19462 55.7266 7.88867 55.4742 7.59327C55.2218 7.29787 54.8327 7.15017 54.3068 7.15017C53.8651 7.15017 53.5075 7.26094 53.2341 7.48249C52.9606 7.70404 52.8239 7.99417 52.8239 8.35287C52.8239 8.65882 52.9396 8.90674 53.171 9.09664C53.4024 9.28654 53.6916 9.40786 54.0386 9.46061L55.1745 9.66634C55.8686 9.79294 56.4471 10.0409 56.9098 10.4101C57.3831 10.7794 57.6197 11.3174 57.6197 12.0243C57.6197 12.5307 57.483 12.979 57.2096 13.3694C56.9361 13.7597 56.5575 14.0604 56.0737 14.2714C55.5899 14.4824 55.0483 14.5879 54.4488 14.5879Z" fill="#FAF8F4"/>
<path d="M61.0551 3.39965H65.0306C66.0192 3.39965 66.8816 3.62647 67.6178 4.08012C68.3645 4.52322 68.9377 5.16677 69.3374 6.01077C69.7475 6.84422 69.9526 7.82009 69.9526 8.93839C69.9526 10.0567 69.7475 11.0326 69.3374 11.866C68.9377 12.6995 68.3645 13.343 67.6178 13.7967C66.8816 14.2503 66.014 14.4771 65.0148 14.4771H61.0551V3.39965ZM64.8886 13.4643C65.6669 13.4643 66.3505 13.2903 66.9395 12.9421C67.5389 12.5834 68.0017 12.0612 68.3277 11.3754C68.6538 10.6897 68.8168 9.87206 68.8168 8.92257C68.8168 7.97307 68.6538 7.16072 68.3277 6.48552C68.0017 5.79977 67.5389 5.28282 66.9395 4.93467C66.3505 4.57597 65.6669 4.39662 64.8886 4.39662H62.1279V13.4643H64.8886Z" fill="#FAF8F4"/>
<path d="M72.0106 6.15319H73.0991V14.4771H72.0106V6.15319ZM72.5312 4.5707C72.3104 4.5707 72.1263 4.49685 71.9791 4.34915C71.8318 4.1909 71.7582 4.001 71.7582 3.77945C71.7582 3.56845 71.8318 3.3891 71.9791 3.2414C72.1263 3.08315 72.3104 3.00402 72.5312 3.00402C72.7521 3.00402 72.9361 3.08315 73.0834 3.2414C73.2306 3.3891 73.3042 3.56845 73.3042 3.77945C73.3042 4.001 73.2306 4.1909 73.0834 4.34915C72.9361 4.49685 72.7521 4.5707 72.5312 4.5707Z" fill="#FAF8F4"/>
<path d="M79.3819 17.7529C78.8982 17.7529 78.4512 17.6791 78.041 17.5314V16.5977C78.1672 16.6399 78.346 16.6768 78.5774 16.7085C78.8088 16.7401 79.0454 16.7559 79.2873 16.7559C80.1392 16.7559 80.7912 16.5186 81.2435 16.0438C81.6957 15.5691 81.9218 14.9202 81.9218 14.0973V12.4515H81.7956C81.5537 12.9896 81.1804 13.4327 80.6756 13.7808C80.1707 14.129 79.566 14.3031 78.8613 14.3031C78.1672 14.3031 77.552 14.1237 77.0156 13.765C76.4792 13.4063 76.0585 12.9105 75.7535 12.2775C75.459 11.6339 75.3118 10.906 75.3118 10.0936C75.3118 9.28127 75.4538 8.55859 75.7378 7.92559C76.0322 7.28204 76.4477 6.78092 76.984 6.42222C77.5204 6.06352 78.1409 5.88417 78.8456 5.88417C79.5818 5.88417 80.2023 6.07407 80.7071 6.45387C81.2224 6.83367 81.5905 7.29787 81.8114 7.84647H81.9218V6.16902H83.0104V14.0973C83.0104 14.6987 82.8842 15.2789 82.6317 15.8381C82.3793 16.3972 81.9797 16.8562 81.4328 17.2149C80.8964 17.5736 80.2128 17.7529 79.3819 17.7529ZM79.1769 13.3377C79.7553 13.3377 80.2496 13.19 80.6598 12.8946C81.0699 12.5887 81.3749 12.1878 81.5748 11.6919C81.7851 11.1961 81.8903 10.6528 81.8903 10.062C81.8903 9.49226 81.7851 8.96477 81.5748 8.47947C81.3749 7.98362 81.0699 7.58799 80.6598 7.29259C80.2601 6.99719 79.7658 6.84949 79.1769 6.84949C78.5879 6.84949 78.0883 6.99719 77.6782 7.29259C77.2785 7.58799 76.9735 7.98362 76.7632 8.47947C76.5634 8.96477 76.4634 9.49226 76.4634 10.062C76.4634 10.6528 76.5634 11.1961 76.7632 11.6919C76.9735 12.1878 77.2785 12.5887 77.6782 12.8946C78.0883 13.19 78.5879 13.3377 79.1769 13.3377Z" fill="#FAF8F4"/>
<path d="M85.6295 6.15319H86.718V14.4771H85.6295V6.15319ZM86.1501 4.5707C85.9292 4.5707 85.7452 4.49685 85.5979 4.34915C85.4507 4.1909 85.3771 4.001 85.3771 3.77945C85.3771 3.56845 85.4507 3.3891 85.5979 3.2414C85.7452 3.08315 85.9292 3.00402 86.1501 3.00402C86.371 3.00402 86.555 3.08315 86.7022 3.2414C86.8495 3.3891 86.9231 3.56845 86.9231 3.77945C86.9231 4.001 86.8495 4.1909 86.7022 4.34915C86.555 4.49685 86.371 4.5707 86.1501 4.5707Z" fill="#FAF8F4"/>
<path d="M91.2813 7.03939V12.2458C91.2813 12.6467 91.297 12.9421 91.3286 13.132C91.3707 13.3114 91.4706 13.4538 91.6283 13.5593C91.7861 13.6648 92.0438 13.7175 92.4013 13.7175C92.6748 13.7175 92.9693 13.6806 93.2848 13.6068V14.398C93.1796 14.4402 93.0166 14.4771 92.7957 14.5088C92.5854 14.5404 92.3593 14.5563 92.1174 14.5563C91.56 14.5563 91.1393 14.4771 90.8553 14.3189C90.5819 14.1501 90.3978 13.9233 90.3032 13.6384C90.219 13.3536 90.177 12.9685 90.177 12.4832L90.1927 7.03939H88.5836V6.15319H90.1927V3.39965H91.2813V6.15319H93.2848V7.03939H91.2813Z" fill="#FAF8F4"/>
<path d="M98.4559 14.5721C97.7197 14.5721 97.0834 14.3822 96.547 14.0024C96.0212 13.6226 95.6163 13.1056 95.3323 12.4515C95.0589 11.7974 94.9221 11.0642 94.9221 10.2519C94.9221 9.42896 95.0589 8.69047 95.3323 8.03637C95.6163 7.37172 96.0264 6.84949 96.5628 6.46969C97.1097 6.08989 97.7618 5.89999 98.519 5.89999C99.2657 5.89999 99.8704 6.08462 100.333 6.45387C100.806 6.81257 101.169 7.25039 101.422 7.76734H101.532V6.15319H102.621V14.4771H101.532V12.6731H101.422C101.148 13.2111 100.77 13.6648 100.286 14.034C99.8126 14.3927 99.2026 14.5721 98.4559 14.5721ZM98.7556 13.6068C99.6391 13.6068 100.312 13.2903 100.775 12.6573C101.248 12.0137 101.485 11.2066 101.485 10.236C101.485 9.26544 101.248 8.46364 100.775 7.83064C100.312 7.19764 99.6391 6.88114 98.7556 6.88114C97.8617 6.88114 97.1833 7.20292 96.7206 7.84647C96.2683 8.47947 96.0422 9.27599 96.0422 10.236C96.0422 11.2066 96.2736 12.0137 96.7363 12.6573C97.1991 13.2903 97.8722 13.6068 98.7556 13.6068Z" fill="#FAF8F4"/>
<path d="M107.15 14.5563C106.582 14.5563 106.156 14.4613 105.872 14.2714C105.599 14.0815 105.42 13.8336 105.336 13.5276C105.262 13.2111 105.225 12.7997 105.225 12.2933V2.6084H106.314V12.1509C106.314 12.5623 106.329 12.8683 106.361 13.0687C106.403 13.2692 106.503 13.4274 106.661 13.5435C106.829 13.6595 107.092 13.7175 107.45 13.7175C107.555 13.7175 107.67 13.7123 107.797 13.7017C107.923 13.6806 108.012 13.6701 108.065 13.6701V14.4613C107.749 14.5246 107.444 14.5563 107.15 14.5563Z" fill="#FAF8F4"/>
<path d="M0 0V10C0 15.5128 4.48718 20 10 20C15.5128 20 20 15.5128 20 10V0H0ZM16.9658 9.95727C16.9658 13.8034 13.8462 16.9658 9.95726 16.9658C6.11111 16.9658 2.94872 13.8462 2.94872 9.95727H4.91453C4.91453 11.2821 5.42735 12.5641 6.36752 13.5043C7.30769 14.4444 8.58974 14.9573 9.91453 14.9573C11.2393 14.9573 12.5214 14.4444 13.4615 13.5043C14.4017 12.5641 14.9145 11.2821 14.9145 9.95727V4.95727H2.99145V2.99145H16.9658V9.95727Z" fill="#FAF8F4"/>
</svg>
